<?xml version="1.0" encoding="iso-8859-1"?>
<!-- Generator: Adobe Illustrator 19.0.0, SVG Export Plug-In . SVG Version: 6.00 Build 0)  -->
<svg version="1.1" id="Layer_1" xmlns="http://www.w3.org/2000/svg" xmlns:xlink="http://www.w3.org/1999/xlink" x="0px" y="0px"
	 viewBox="0 0 512 512" style="enable-background:new 0 0 512 512;" xml:space="preserve">
<path style="fill:#FF0C38;" d="M471.579,185.91c22.323,0,40.421-18.098,40.421-40.421V40.421C512,18.098,493.902,0,471.579,0H256
	H40.421C18.098,0,0,18.098,0,40.421v105.068c0,22.323,18.098,40.421,40.421,40.421s40.421-18.098,40.421-40.421V80.842h134.737
	v350.316h-62.421c-22.323,0-40.421,18.098-40.421,40.421c0,22.323,18.098,40.421,40.421,40.421H256h102.842
	c22.323,0,40.421-18.098,40.421-40.421c0-22.323-18.098-40.421-40.421-40.421h-62.421V80.842h134.737v64.647
	C431.158,167.812,449.256,185.91,471.579,185.91z"/>
<g>
</g>
<g>
</g>
<g>
</g>
<g>
</g>
<g>
</g>
<g>
</g>
<g>
</g>
<g>
</g>
<g>
</g>
<g>
</g>
<g>
</g>
<g>
</g>
<g>
</g>
<g>
</g>
<g>
</g>
</svg>
